<?xml version="1.0" encoding="UTF-8"?>
<svg id="Livello_1" xmlns="http://www.w3.org/2000/svg" version="1.1" viewBox="0 0 154 28">
  <!-- Generator: Adobe Illustrator 29.0.1, SVG Export Plug-In . SVG Version: 2.1.0 Build 192)  -->
  <defs>
    <style>
      .st0 {
        fill: #0b0904;
      }
    </style>
  </defs>
  <polygon class="st0" points="18.63 4.53 13.35 17.62 8.13 4.53 5.01 4.53 13.28 24.84 21.75 4.53 18.63 4.53"/>
  <path class="st0" d="M20.61,23.42h3.07l2.1-4.59h8.08l1.98,4.59h3.12L29.94,3.34s-9.33,20.08-9.33,20.08ZM26.97,16.15l2.93-6.42,2.8,6.42h-5.74,0Z"/>
  <polygon class="st0" points="44.41 4.53 41.57 4.53 41.57 23.42 49.96 23.42 49.96 20.74 44.41 20.74 44.41 4.53"/>
  <polygon class="st0" points="52.92 23.42 63.32 23.42 63.32 20.74 55.76 20.74 55.76 14.43 63.11 14.43 63.11 11.75 55.76 11.75 55.76 7.21 63.32 7.21 63.32 4.53 52.92 4.53 52.92 23.42"/>
  <polygon class="st0" points="81.08 17.66 67.32 3.25 67.32 23.42 70.16 23.42 70.16 10.2 83.92 24.57 83.92 4.53 81.08 4.53 81.08 17.66"/>
  <polygon class="st0" points="86.72 7.21 91.05 7.21 91.05 23.42 93.91 23.42 93.91 7.21 98.23 7.21 98.23 4.53 86.72 4.53 86.72 7.21"/>
  <rect class="st0" x="101.02" y="4.53" width="2.84" height="18.89"/>
  <polygon class="st0" points="122.42 17.66 108.66 3.25 108.66 23.42 111.5 23.42 111.5 10.2 125.26 24.57 125.26 4.53 122.42 4.53 122.42 17.66"/>
  <path class="st0" d="M146.1,7.06c-1.92-1.92-4.23-2.89-6.92-2.89s-5.05.95-6.99,2.86c-1.95,1.91-2.92,4.19-2.92,6.86,0,3.02,1.06,5.47,3.2,7.34,1.94,1.69,4.13,2.53,6.57,2.53,2.75,0,5.11-.95,7.05-2.85,1.94-1.89,2.91-4.2,2.91-6.91s-.97-5.01-2.9-6.94M144.08,19.04c-1.37,1.38-3.03,2.05-5.01,2.05-1.83,0-3.44-.67-4.83-2.02-1.4-1.35-2.1-3.06-2.1-5.15s.68-3.66,2.03-5.02c1.36-1.37,3.01-2.05,4.97-2.05s3.63.69,4.96,2.05c1.35,1.37,2.02,3.05,2.02,5.07s-.68,3.68-2.04,5.07"/>
</svg>