<svg xmlns="http://www.w3.org/2000/svg" viewBox="0 0 24 24" width="1em" height="1em" fill="currentColor" aria-labelledby="switch-language-:R4dm5e5:" class="zds-icon RC794g X9n9TI DlJ4rT _5Yd-hZ HlZ_Tf I_qHp3" focusable="false" aria-hidden="true" role="img" data-testid="language-switcher-icon"><title id="switch-language-:R4dm5e5:">Switch Language</title><path d="M24 12c0-6.627-5.373-12-12-12S0 5.373 0 12s5.373 12 12 12h.001c6.624-.008 11.991-5.376 11.999-12m-1.501-.024c-1.24-.38-2.502-.67-3.775-.904-.15-3.641-1.174-6.775-2.714-8.77a10.51 10.51 0 0 1 6.489 9.674M11.25 1.626v8.89a33.5 33.5 0 0 0-4.462.295c.277-4.66 2.15-8.49 4.462-9.186m0 10.389v10.36c-2.453-.74-4.41-5.01-4.492-10.053a32 32 0 0 1 4.492-.307m1.5 10.36v-10.36c1.505.003 3.006.093 4.492.307-.082 5.042-2.04 9.314-4.492 10.053m0-11.86v-8.89c2.311.697 4.185 4.527 4.462 9.186a33.5 33.5 0 0 0-4.462-.295m-4.756-8.22c-1.542 1.996-2.568 5.133-2.718 8.777a34 34 0 0 0-3.775.904c.01-4.37 2.69-8.109 6.493-9.68m-6.378 11.18c.046-.007.093-.004.139-.02a32 32 0 0 1 3.511-.859c.1 3.785 1.14 7.053 2.728 9.109a10.5 10.5 0 0 1-6.378-8.23m14.39 8.23c1.588-2.056 2.627-5.324 2.728-9.109 1.183.228 2.358.498 3.511.859.045.016.092.017.139.024a10.5 10.5 0 0 1-6.378 8.226"/></svg>