<svg xmlns="http://www.w3.org/2000/svg" width="48" height="33" fill="none" viewBox="0 0 48 33"><rect width="48" height="32" fill="#fff" rx="4"/><path fill="#DDD" d="M43.999 1.428a2.604 2.604 0 0 1 2.601 2.6v23.998a2.604 2.604 0 0 1-2.601 2.602H4A2.604 2.604 0 0 1 1.4 28.026V4.03a2.604 2.604 0 0 1 2.601-2.601zm0-1.4H4a4 4 0 0 0-4.001 4v23.998a4 4 0 0 0 4.001 4.002H44A4 4 0 0 0 48 28.026V4.03A4 4 0 0 0 43.999.028"/><path fill="#000" d="M24.053 29.189c-2.062-2.111-3.966-4.586-5.979-7.173-1.948-2.503-4.153-4.927-4.188-8.866C13.815 4.27 24.7-.308 31.026 5.77c1.75 1.686 3.05 4.23 3.086 7.075.056 4.052-2.119 6.611-4.088 9.164-1.962 2.565-4.08 4.947-5.97 7.18"/><path fill="#000" d="M31.027 15.269H28.48c.136-1.258 2.425-1.323 2.546 0"/><path fill="#692E8B" d="M23.889 19.285h.398c1.016.064 1.735.419 2.31.938.285.256.25.242.37.37.32.326.846 1.201.903 2.175 0 .235.021.383 0 .703-.029.825-.363 1.351-.668 1.905-.292.39-.57.796-.868 1.173-.747.889-1.457 1.82-2.275 2.645-.84-1.023-1.7-2.012-2.546-3.022-.206-.284-.235-.348-.334-.505-.37-.554-.832-1.265-.903-2.24-.17-2.328 1.438-3.9 3.613-4.142"/><path fill="#501E75" d="M26.1 26.147c.662-.86 1.387-1.714 1.373-3.078a3.4 3.4 0 0 0-1.038-2.375c-2.126-2.04-5.78-.505-5.751 2.474.014 1.322.754 2.132 1.408 2.979.675.867 1.314 1.699 2.005 2.41.631-.755 1.342-1.55 2.004-2.41"/><path fill="#fff" d="m20.228 9.467-.917.164a.65.65 0 0 0-.206-.412.63.63 0 0 0-.426-.141.7.7 0 0 0-.555.242c-.135.157-.207.426-.207.803 0 .412.071.71.207.882a.69.69 0 0 0 .562.256q.265 0 .433-.15.17-.147.235-.52l.91.158c-.092.419-.278.731-.548.945s-.626.32-1.081.32c-.512 0-.924-.164-1.223-.484q-.456-.48-.455-1.344c0-.576.157-1.03.462-1.351s.718-.484 1.244-.484c.426 0 .768.092 1.016.277q.387.276.55.84m.49.668q.002-.458.228-.896c.15-.291.37-.505.646-.66q.418-.226.932-.228c.533 0 .966.17 1.3.519.341.341.505.782.505 1.308 0 .533-.17.966-.512 1.314s-.775.527-1.293.527c-.32 0-.626-.071-.917-.221a1.5 1.5 0 0 1-.668-.64 2.3 2.3 0 0 1-.221-1.023m.954.05q.001.521.248.797.248.278.612.278a.78.78 0 0 0 .611-.277q.248-.28.25-.804-.002-.511-.25-.79a.79.79 0 0 0-.611-.277.78.78 0 0 0-.611.277c-.172.177-.25.448-.25.797m3.39 1.75V7.093h.924v4.84h-.924zm1.878-3.982v-.86h.924v.86zm0 3.982V8.43h.924v3.505zm1.55-1.003.93-.142a.7.7 0 0 0 .242.412c.12.092.292.142.506.142.242 0 .419-.043.54-.135a.3.3 0 0 0 .12-.249.26.26 0 0 0-.063-.178c-.05-.043-.15-.085-.313-.12-.747-.165-1.223-.313-1.422-.456a.91.91 0 0 1-.412-.79.97.97 0 0 1 .362-.768c.242-.206.612-.313 1.117-.313.476 0 .839.078 1.067.235.234.157.39.384.483.69l-.874.163a.52.52 0 0 0-.214-.312q-.16-.106-.448-.106-.364.002-.526.099-.107.076-.107.185-.001.095.092.171c.085.064.37.15.868.263.49.114.839.25 1.038.412.193.164.292.398.292.69q0 .48-.405.831c-.27.228-.668.348-1.194.348q-.716-.002-1.13-.291a1.3 1.3 0 0 1-.55-.781M17.134 18.88v-4.848h.54v.456a1.26 1.26 0 0 1 .434-.398c.164-.092.355-.135.582-.135q.449.002.79.228c.228.157.398.37.52.654.113.277.178.59.178.924 0 .355-.064.682-.193.967a1.46 1.46 0 0 1-.562.66 1.4 1.4 0 0 1-.775.228 1.1 1.1 0 0 1-.533-.127 1.3 1.3 0 0 1-.391-.32v1.704h-.59zm.533-3.078q0 .673.278 1.002.277.32.66.32.397-.001.676-.334c.185-.22.284-.569.284-1.038q0-.673-.277-1.002-.278-.333-.661-.334-.383.001-.668.355-.29.361-.292 1.031m3.221 1.734v-3.505h.534v.533c.134-.249.263-.412.376-.49a.67.67 0 0 1 .384-.121q.3 0 .61.192l-.206.555a.85.85 0 0 0-.433-.127.56.56 0 0 0-.348.113.6.6 0 0 0-.22.327q-.098.318-.1.689v1.834zm2.261-4.152v-.682h.597v.682zm0 4.152v-3.505h.597v3.505zm2.467 0-1.33-3.505h.625l.754 2.097c.078.228.157.463.228.703.05-.185.128-.404.22-.668l.783-2.14h.612l-1.33 3.506h-.562zm4.805-1.13.612.079c-.1.355-.278.64-.54.832q-.396.298-1.003.298-.766.002-1.222-.477c-.299-.312-.449-.76-.449-1.33q-.002-.883.456-1.372.456-.49 1.18-.491.704-.001 1.152.476.447.48.448 1.345v.157H28.44c.021.383.127.682.327.881.2.207.44.306.731.306q.33 0 .555-.171c.157-.1.284-.276.37-.532m-1.947-.96h1.956c-.029-.292-.1-.52-.228-.661a.92.92 0 0 0-.74-.341.94.94 0 0 0-.69.277q-.266.267-.298.725m.64-1.848.44-.924h.782l-.724.924z"/></svg>