<svg xmlns="http://www.w3.org/2000/svg" viewBox="0 0 24 24" width="1em" height="1em" fill="currentColor" class="zds-icon RC794g X9n9TI DlJ4rT _5Yd-hZ iXbgaG nXkCf3 DlJ4rT _9l1hln _65i7kZ fzejeK I_qHp3" focusable="false" aria-hidden="true"><path d="M21 3H3a3.004 3.004 0 0 0-3 3v12a3.004 3.004 0 0 0 3 3h18a3.004 3.004 0 0 0 3-3V6a3.004 3.004 0 0 0-3-3m0 1.5c.318 0 .597.122.84.291l-8.816 8.229a1.505 1.505 0 0 1-2.048 0L2.16 4.79c.243-.17.522-.29.84-.291zm0 15H3A1.5 1.5 0 0 1 1.5 18V6.225l8.454 7.89A3 3 0 0 0 12 14.92a3 3 0 0 0 2.046-.804l8.454-7.89V18a1.5 1.5 0 0 1-1.5 1.5"/></svg>