<svg xmlns="http://www.w3.org/2000/svg" width="48" height="33" fill="none" viewBox="0 0 48 33"><rect width="48" height="32" fill="#fff" rx="4"/><path fill="#DDD" d="M43.999 1.428a2.604 2.604 0 0 1 2.601 2.6v23.998a2.604 2.604 0 0 1-2.601 2.602H4A2.604 2.604 0 0 1 1.4 28.026V4.03a2.604 2.604 0 0 1 2.601-2.601zm0-1.4H4a4 4 0 0 0-4.001 4v23.998a4 4 0 0 0 4.001 4.002H44A4 4 0 0 0 48 28.026V4.03A4 4 0 0 0 43.999.028"/><path fill="#96154A" d="M3 21.088c.016.458.182.897.472 1.253s.688.61 1.136.722c.6.147 3.696.481 5.526.481 1.832 0 4.928-.334 5.528-.481a2.14 2.14 0 0 0 1.136-.722c.29-.356.456-.795.472-1.253v-9.64a2.1 2.1 0 0 0-.472-1.252 2.14 2.14 0 0 0-1.136-.722c-.6-.147-3.695-.48-5.528-.48s-4.926.333-5.526.48a2.14 2.14 0 0 0-1.136.722c-.29.356-.455.795-.472 1.252z"/><path fill="#fff" d="M11.233 16.02c-1.226-.216-2.043.435-2.043 1.49v2.413l-1.927 1.223V17.51c0-2.11 1.475-3.579 3.97-3.282zM10.583 12.374a1.09 1.09 0 0 1-.683 1.012 1.12 1.12 0 0 1-1.205-.237 1.09 1.09 0 0 1-.24-1.195 1.113 1.113 0 0 1 1.804-.355c.207.205.324.484.324.775"/><path fill="#F6ABB6" d="M11.694 15.875a.31.31 0 0 0 .235.288q.401.064.807.07.407-.007.809-.07a.32.32 0 0 0 .235-.289v-1.409a.31.31 0 0 0-.235-.287 6 6 0 0 0-.809-.07q-.406.006-.807.07a.31.31 0 0 0-.235.287z"/><path fill="#96154A" d="M32.213 12.875q.39.37.391 1.11v1.94h-.796v-1.838a.95.95 0 0 0-.215-.67.79.79 0 0 0-.602-.224.93.93 0 0 0-.696.263c-.183.21-.275.481-.257.758v1.711h-.795V12.54H30v.437c.134-.157.305-.279.498-.354a1.8 1.8 0 0 1 .678-.123 1.44 1.44 0 0 1 1.036.37M27.087 16a1.8 1.8 0 0 1-1-.284 1.77 1.77 0 0 1-.67-.789 1.75 1.75 0 0 1 .37-1.937 1.801 1.801 0 0 1 1.95-.396c.327.133.608.36.805.651s.303.635.303.986c.003.466-.18.913-.51 1.245s-.779.52-1.248.524m.023-2.738a1 1 0 0 0-.93.601.98.98 0 0 0 .209 1.08 1 1 0 0 0 1.087.22.98.98 0 0 0 .33-1.607 1 1 0 0 0-.696-.294M34.856 21.074v-3.385h-.762v.32a1.77 1.77 0 0 0-2.572.458 1.733 1.733 0 0 0 .719 2.49 1.78 1.78 0 0 0 1.853-.187v.303zm-1.837-.645c-.208 0-.41-.06-.583-.175a1.04 1.04 0 0 1-.447-1.068 1.04 1.04 0 0 1 .825-.817 1.06 1.06 0 0 1 1.078.442 1.03 1.03 0 0 1-.13 1.313 1.06 1.06 0 0 1-.743.305M41.322 12.538v.34a1.77 1.77 0 0 0-2.572.457 1.733 1.733 0 0 0 .719 2.489 1.78 1.78 0 0 0 1.853-.186v.286h.762v-3.386zm-1.075 2.76a1.06 1.06 0 0 1-.971-.642 1.03 1.03 0 0 1 .227-1.134 1.05 1.05 0 0 1 1.144-.226 1.05 1.05 0 0 1 .649.96c0 .276-.111.54-.308.736a1.06 1.06 0 0 1-.741.305M27.363 20.42a1.12 1.12 0 0 1-1.114-.408l.04-.012 2.607-.864a2.05 2.05 0 0 0-.434-.933 1.57 1.57 0 0 0-.72-.493 2.04 2.04 0 0 0-1.797.287c-.242.18-.429.425-.539.706a1.73 1.73 0 0 0-.095.916q.037.249.141.478c.317.726 1.127 1.143 1.967 1.016l.082-.014c.3-.053.58-.183.813-.375s.413-.441.521-.723l-.642-.247a1.1 1.1 0 0 1-.83.66zm-1.276-.95a1.05 1.05 0 0 1 .159-.802.97.97 0 0 1 .677-.39c.22-.04.448-.006.648.094a.9.9 0 0 1 .415.445l-1.897.652z"/><path fill="#96154A" d="M29.243 19.788c.003.257.079.509.22.725a1.38 1.38 0 0 0 1.331.615c.258-.032.502-.136.703-.299l-.498-.61a.6.6 0 0 1-.374.131.58.58 0 0 1-.408-.162.57.57 0 0 1-.174-.4v-3.356h-.796zM44.496 15.049a.6.6 0 0 1-.374.13.58.58 0 0 1-.535-.344.6.6 0 0 1-.047-.218v-3.255l-.796.506v2.75a1.36 1.36 0 0 0 .797 1.222 1.39 1.39 0 0 0 1.458-.181zM24.095 15.92h.835v-4.245a.4.4 0 0 0-.28-.377.41.41 0 0 0-.448.147l-1.246 1.727-1.245-1.727a.4.4 0 0 0-.45-.148.4.4 0 0 0-.278.38v4.243h.836v-2.806l.052.063c.322.399.811 1 .838 1.026.068.063.157.099.25.1a.38.38 0 0 0 .249-.1c.026-.026.515-.627.838-1.026l.051-.063zM38.088 12.761h-.795v3.163h.795zM38.192 11.784a.49.49 0 0 0-.308-.456.5.5 0 0 0-.543.107.492.492 0 0 0 .352.842.492.492 0 0 0 .498-.494M38.193 17.694v1.652c0 .559-.402.987-.937.987-.534 0-.936-.422-.936-.987v-1.649h-.797v1.649a1.71 1.71 0 0 0 .492 1.245 1.74 1.74 0 0 0 1.241.524c.337.001.664-.103.937-.297v.43c0 .863-.699 1.53-1.62 1.53-1.103 0-1.63-.617-1.712-1.187h-.767c.098 1.14 1.113 1.952 2.475 1.952a2.5 2.5 0 0 0 1.702-.64 2.23 2.23 0 0 0 .72-1.656v-3.55zM35.838 11.338v1.54a1.77 1.77 0 0 0-2.572.457 1.734 1.734 0 0 0 .718 2.489 1.78 1.78 0 0 0 1.854-.186v.286h.792v-4.586zm-1.075 3.96a1.06 1.06 0 0 1-.97-.643 1.03 1.03 0 0 1 .227-1.134 1.054 1.054 0 0 1 1.793.736c0 .276-.111.54-.308.735a1.06 1.06 0 0 1-.742.305M24.311 21.074h1.04l-1.172-1.643.027-.016a1.54 1.54 0 0 0 .778-1.195 1.66 1.66 0 0 0-.417-1.255 1.6 1.6 0 0 0-1.194-.533h-1.46a.96.96 0 0 0-.668.284.94.94 0 0 0-.27.669v3.688h.837V19.66h1.494zm-2.47-2.248h-.03v-1.293a.273.273 0 0 1 .268-.271h1.266a.8.8 0 0 1 .561.205.78.78 0 0 1-.478 1.36z"/></svg>