<svg xmlns="http://www.w3.org/2000/svg" viewBox="0 0 24 24" width="1em" height="1em" fill="currentColor" class="zds-icon RC794g X9n9TI DlJ4rT _5Yd-hZ uVxVjw uaGG5x I_qHp3" focusable="false" aria-hidden="true"><path d="M20.395 7.738a.9.9 0 0 0-.661-.294h-3.212V4.58c0-.492-.4-.891-.891-.891H9.503a5.6 5.6 0 0 0 .407-2.114c0-.043-.017-.08-.025-.121h.236a.714.714 0 1 0 0-1.43H1.563a.714.714 0 1 0 0 1.43h.236c-.008.04-.025.078-.025.12 0 1.982.894 3.566 2.576 4.66-1.621 1.056-2.5 2.57-2.561 4.453h-.226a.714.714 0 1 0 0 1.429h.696v4.236c0 .49.4.891.892.891h1.288c.014 1.653 1.36 2.995 3.017 2.995s3.004-1.342 3.018-2.995h6.006c.014 1.653 1.36 2.995 3.017 2.995s3.004-1.342 3.018-2.995h.606c.492 0 .892-.4.892-.891v-4.693zM3.203 1.574c0-.043-.017-.08-.025-.121h5.328c-.008.04-.025.078-.025.12 0 1.732-.895 3.027-2.639 3.866-1.744-.839-2.64-2.134-2.64-3.865m2.639 5.455c1.672.804 2.555 2.032 2.625 3.657h-5.25c.07-1.626.952-2.853 2.625-3.657m1.614 11.708a1.521 1.521 0 0 1 0-3.04 1.52 1.52 0 0 1 0 3.04m7.566-2.995h-4.947c-.519-.917-1.492-1.545-2.619-1.545s-2.1.628-2.619 1.545H3.76v-3.627h6.362a.714.714 0 1 0 0-1.429h-.226c-.06-1.882-.94-3.397-2.562-4.452q.717-.465 1.237-1.046h6.452zm4.475 2.995c-.838 0-1.52-.681-1.52-1.52a1.521 1.521 0 0 1 3.04 0c0 .839-.68 1.52-1.52 1.52m3.016-2.995h-.396c-.52-.917-1.493-1.545-2.62-1.545s-2.1.628-2.618 1.545h-.357V8.944h2.944l3.047 3.3z"/></svg>