<svg xmlns="http://www.w3.org/2000/svg" viewBox="0 0 24 24" width="1em" height="1em" fill="currentColor" class="zds-icon RC794g X9n9TI DlJ4rT _5Yd-hZ _65i7kZ RW-Dtz HG8yY9" focusable="false" aria-hidden="true"><path d="M21.925 9.623c-1.542-1.945-3.713-3.808-6.534-5.505h-.02c-2.84-1.656-5.519-2.629-7.933-3.022-1.502-.248-2.232.042-2.557.228s-.933.683-1.481 2.132C2.528 5.794 2.02 8.65 2 11.982v.021c.02 3.353.528 6.188 1.4 8.527.548 1.449 1.157 1.945 1.481 2.131.325.187 1.055.477 2.557.228 2.414-.393 5.092-1.366 7.933-3.021h.02c2.82-1.697 4.992-3.56 6.534-5.506.973-1.2 1.075-1.986 1.075-2.38 0-.372-.102-1.159-1.075-2.359"/></svg>