<svg xmlns="http://www.w3.org/2000/svg" width="48" height="32" fill="none" viewBox="0 0 48 32"><rect width="48" height="32" fill="#FFB3C7" rx="4"/><path fill="#FFB3C7" d="M0 6.667h48v19.416H0z"/><path fill="#000" d="M38.437 15.174a2.974 2.974 0 1 0 0 4.914v.36h1.687v-5.634h-1.687v.36Zm-1.534 3.907a1.452 1.452 0 1 1 1.529-1.45 1.49 1.49 0 0 1-1.53 1.45ZM15.303 12.303h-1.766v8.145h1.766v-8.145ZM30.794 14.662a2.05 2.05 0 0 0-1.738.786v-.634h-1.68v5.634h1.7v-2.961a1.187 1.187 0 0 1 1.267-1.276c.741 0 1.168.443 1.168 1.264v2.973h1.685v-3.583c0-1.311-1.043-2.203-2.402-2.203ZM20.64 15.174a2.973 2.973 0 1 0 0 4.914v.36h1.687v-5.634H20.64v.36Zm-1.534 3.907a1.453 1.453 0 1 1 1.528-1.45 1.49 1.49 0 0 1-1.528 1.45ZM24.937 15.547v-.733h-1.728v5.634h1.731v-2.63c0-.888.962-1.365 1.63-1.365h.02v-1.64a2.103 2.103 0 0 0-1.653.734ZM41.915 18.45a1.058 1.058 0 1 0 0 2.116 1.058 1.058 0 0 0 0-2.116ZM12.32 12.301h-1.83A4.68 4.68 0 0 1 8.6 16.078l-.725.543 2.809 3.83h2.309l-2.584-3.525a6.484 6.484 0 0 0 1.912-4.625ZM7.65 12.301H5.819v8.15H7.65V12.3Z"/></svg>