<svg xmlns="http://www.w3.org/2000/svg" xml:space="preserve" width="48" height="32" viewBox="0 0 48 32" enable-background="new 0 0 48 32"><path d="M43.999 32H4A4.001 4.001 0 0 1 0 27.999V4A4.001 4.001 0 0 1 4.001 0H44A4.001 4.001 0 0 1 48 4.001V28A4.001 4.001 0 0 1 43.999 32z" fill="#061ab1"/><circle cx="40.279" cy="20.121" r="2.047" fill="#ffcd00"/><path d="M11.56 15.572v2.678h2.228c-.327.512-1.06.781-1.558.781-1.677 0-2.515-.957-2.515-2.885 0-2.132 1.108-3.221 3.305-3.221.873 0 2.012.216 3.239.604v-3.203c-.353-.15-.892-.27-1.576-.384a11.207 11.207 0 0 0-1.862-.168c-2.18 0-3.909.587-5.202 1.76s-1.946 2.754-1.946 4.748c0 1.827.503 3.27 1.51 4.329 1.005 1.072 2.364 1.61 4.076 1.61 1.717 0 3.296-.89 3.808-2.025l-.009 1.822h2.485v-6.446h-5.984zM18.765 22.023V9.977h3.86v8.909h4.21v3.137h-8.07zM28.062 21.718v-3.287c.569.186 1.24.336 1.994.468s1.407.203 1.963.203c.94 0 1.426-.234 1.426-.653 0-.27-.15-.402-.839-.552l-1.341-.3c-2.299-.52-3.371-1.676-3.371-3.64 0-1.293.454-2.316 1.341-3.07.892-.738 2.131-1.108 3.689-1.108 1.072 0 2.718.216 3.724.467v3.137c-.52-.132-1.143-.269-1.897-.383-.755-.12-1.342-.168-1.778-.168-.821 0-1.293.234-1.293.653 0 .251.216.42.67.538l1.562.37c2.282.54 3.34 1.713 3.34 3.707 0 1.275-.467 2.281-1.394 3.018-.922.737-2.197 1.108-3.825 1.108-1.54-.005-3.102-.22-3.971-.508z" fill="#fff"/></svg>