<svg xmlns="http://www.w3.org/2000/svg" width="48" height="32" viewBox="0 0 48 32"><rect width="46.6" height="30.6" x="0.7" y="0.7" fill="#fff" rx="3.3"/><path fill="#ddd" d="M44 1.4A2.61 2.61 0 0 1 46.6 4v24a2.61 2.61 0 0 1-2.6 2.6H4A2.61 2.61 0 0 1 1.4 28V4A2.61 2.61 0 0 1 4 1.4zM44 0H4a4 4 0 0 0-4 4v24a4 4 0 0 0 4 4h40a4 4 0 0 0 4-4V4a4 4 0 0 0-4-4z"/><path fill="#0099de" d="M23.73 5.33a.47.47 0 0 1 .51 0l4.48 2.44c-1.06.64-2.13 1.24-3.19 1.87-.21.1-.09.37-.1.55.16.07.33.31.52.2l3-1.75v5.09a.42.42 0 0 1-.26.38l-3.86 2.27c-.32.14-.64.55-1 .38l-4.52-2.67a.43.43 0 0 1-.24-.44v-5l4.52 2.62v3.87c0 .22.3.24.45.34.16-.11.46-.16.42-.41v-4.14a.19.19 0 0 0-.11-.21c-1.67-1-3.36-1.94-5-2.94l4.44-2.42z"/><path fill="#404042" d="M7.69 19h1.13v2a2.78 2.78 0 0 1 1.93 0 1.44 1.44 0 0 1 .73 1.34v2.76h-1.15v-2.63a.6.6 0 0 0-.47-.63 2.17 2.17 0 0 0-1 .1v3.12H7.69zm34 .35h1.11v1.54h1.47v.94h-1.48v1.71a.6.6 0 0 0 .39.57A2.21 2.21 0 0 0 44.3 24v1.1a3.48 3.48 0 0 1-1.92-.1 1.39 1.39 0 0 1-.72-1.28v-4.39zM39 20.8a2.64 2.64 0 0 1 1.81.23v1a1.84 1.84 0 0 0-1.48-.36.31.31 0 0 0-.05.58c.5.22 1.12.2 1.51.62a1.32 1.32 0 0 1-.44 2 2.8 2.8 0 0 1-2.3-.18v-.98a2.23 2.23 0 0 0 1.61.44.33.33 0 0 0 .25-.5c-.19-.23-.52-.22-.78-.3a1.37 1.37 0 0 1-1-.69 1.53 1.53 0 0 1 0-1.24 1.31 1.31 0 0 1 .87-.62zm-34.8.69a2.42 2.42 0 0 1 2.89-.41v1.1A1.59 1.59 0 0 0 5.36 22a1.23 1.23 0 0 0-.42 1.48 1.14 1.14 0 0 0 1 .69 1.76 1.76 0 0 0 1.21-.38v1.09A2.63 2.63 0 0 1 5 25a1.93 1.93 0 0 1-1.2-1.3 2.41 2.41 0 0 1 .42-2.21zm8.55-.49a3.31 3.31 0 0 1 2-.17v1.06a2.12 2.12 0 0 0-1.17 0 .67.67 0 0 0-.36.67v2.51h-1.11v-2.68a1.52 1.52 0 0 1 .64-1.39zm3.61-.19a2.38 2.38 0 0 1 1.94.4 2.3 2.3 0 0 1 .19 3.29 2.33 2.33 0 0 1-3.25-.06 2.36 2.36 0 0 1-.39-2.34 2 2 0 0 1 1.51-1.29zm.17 1a1.32 1.32 0 0 0-.47 1.89 1 1 0 0 0 1.4.26 1.37 1.37 0 0 0 .33-1.66 1 1 0 0 0-1.26-.49zm3.07-.7a5.58 5.58 0 0 1 2.4-.3 1.44 1.44 0 0 1 1 .52 2 2 0 0 1 .31 1.22v2.51h-1.07v-2.52a.66.66 0 0 0-.36-.66 2 2 0 0 0-1.15.05v3.13H19.6v-3.92zm5.92-.31a2.38 2.38 0 0 1 1.92.42 2.28 2.28 0 0 1 0 3.42 2.32 2.32 0 0 1-3.11-.23A2.35 2.35 0 0 1 24 22.1a2 2 0 0 1 1.53-1.27zm.1 1a1.32 1.32 0 0 0-.41 1.89 1 1 0 0 0 1.6 0 1.46 1.46 0 0 0 .06-1.53 1 1 0 0 0-1.25-.39zm3.06-.74a4.52 4.52 0 0 1 2.62-.25 1.89 1.89 0 0 1 1.45 1.43 2.51 2.51 0 0 1-.5 2.22 2.38 2.38 0 0 1-1.84.63v-1a1.27 1.27 0 0 0 1.09-.59 1.3 1.3 0 0 0-.17-1.49 1.6 1.6 0 0 0-1.5-.19v4.85h-1.15v-5.55zm6.18-.26a2.4 2.4 0 0 1 2.07.41 2.23 2.23 0 1 1-2.93 0 2.2 2.2 0 0 1 .86-.44zm.25 1a1.31 1.31 0 0 0-.5 1.83 1 1 0 0 0 1.61.18 1.45 1.45 0 0 0 .09-1.63 1 1 0 0 0-1.2-.38z"/></svg>