<svg xmlns="http://www.w3.org/2000/svg" width="48" height="32" viewBox="0 0 48 32"><linearGradient id="a" x1="19.13" x2="28.73" y1="155.32" y2="161.28" gradientTransform="matrix(1 0 0 -1 0 170)" gradientUnits="userSpaceOnUse"><stop offset="0" stop-color="#ec6608"/><stop offset="0.53" stop-color="#ef7a07"/><stop offset="1" stop-color="#fbba07"/></linearGradient><rect width="46.6" height="30.6" x="0.7" y="0.7" fill="#fff" rx="3.3"/><path fill="#ddd" d="M44 1.4A2.61 2.61 0 0 1 46.6 4v24a2.61 2.61 0 0 1-2.6 2.6H4A2.61 2.61 0 0 1 1.4 28V4A2.61 2.61 0 0 1 4 1.4zM44 0H4a4 4 0 0 0-4 4v24a4 4 0 0 0 4 4h40a4 4 0 0 0 4-4V4a4 4 0 0 0-4-4z"/><path fill="#404042" d="M9.77 21.55v1.19a1.74 1.74 0 0 0-1.19-.43 1.23 1.23 0 0 0-1.32 1.31A1.27 1.27 0 0 0 8.64 25a1.87 1.87 0 0 0 1.17-.41v1.18a2.63 2.63 0 0 1-1.35.34A2.29 2.29 0 0 1 6 23.64a2.33 2.33 0 0 1 2.45-2.44 2.37 2.37 0 0 1 1.32.35zm7.66 3.34a.7.7 0 0 1-.7-.78v-4.92h-1.25v5c0 1.36.77 1.81 1.95 1.82zM15 23.63a2.35 2.35 0 0 1-2.44 2.43 2.43 2.43 0 0 1 0-4.86A2.35 2.35 0 0 1 15 23.63zm-1.27 0a1.18 1.18 0 1 0-2.34 0 1.18 1.18 0 1 0 2.34 0zm6.3 2a2.91 2.91 0 0 0 1.51.38c1.08 0 1.84-.46 1.84-1.47 0-.84-.4-1.29-1.6-1.51-.44-.11-.61-.23-.61-.47s.18-.4.6-.4a2.33 2.33 0 0 1 1.32.45v-1.12a2.63 2.63 0 0 0-1.37-.34c-1 0-1.77.47-1.77 1.49 0 .84.44 1.26 1.49 1.45.51.1.71.22.71.5s-.26.41-.65.41a2.74 2.74 0 0 1-1.5-.52v1.15zM18 26h1.25v-4.7H18zm.63-6.52a.63.63 0 1 0 .62.62.63.63 0 0 0-.62-.62M42 23.63a2.44 2.44 0 1 1-2.44-2.43A2.34 2.34 0 0 1 42 23.63zm-1.27 0a1.18 1.18 0 1 0-2.34 0 1.18 1.18 0 1 0 2.34 0zm-16.92 2a3 3 0 0 0 1.51.38c1.09 0 1.85-.46 1.85-1.47 0-.84-.41-1.29-1.61-1.51-.44-.11-.6-.23-.6-.47s.17-.4.59-.4a2.28 2.28 0 0 1 1.32.45v-1.12a2.57 2.57 0 0 0-1.36-.34c-1 0-1.77.47-1.77 1.49 0 .84.44 1.26 1.49 1.45.51.1.71.22.71.5s-.26.41-.65.41a2.71 2.71 0 0 1-1.48-.52zm3.89.37H29v-4.7h-1.3zm.63-6.52a.63.63 0 1 0 .63.62.63.63 0 0 0-.63-.62m7 3.61V26h1.26v-3c0-1.37-.7-1.79-1.8-1.79a3.53 3.53 0 0 0-1.57.36 2.08 2.08 0 0 0-1.22-.36 6.06 6.06 0 0 0-2.09.4V26h1.25v-3.58a2.72 2.72 0 0 1 .78-.11c.48 0 .71.25.71.74V26h1.26v-3a1.25 1.25 0 0 0-.09-.47 2 2 0 0 1 .87-.18c.49 0 .71.25.71.74z"/><path fill="url(#a)" d="M25.94 11.13a.18.18 0 0 1-.16 0l-.27-.13a.13.13 0 0 1-.06-.07.16.16 0 0 1 0-.08v-.35a.16.16 0 0 1 .08-.14l3.25-1.89L24.18 6a.43.43 0 0 0-.36 0l-4.56 2.46 5.11 3a.2.2 0 0 1 .08.15v4.33a.16.16 0 0 1-.09.14l-.27.16H24a.14.14 0 0 1-.09 0l-.27-.16a.17.17 0 0 1-.09-.14v-3.89a.1.1 0 0 0 0-.08L19 9.35v5.13a.37.37 0 0 0 .18.31l4.63 2.73a.35.35 0 0 0 .36 0l4.63-2.73a.37.37 0 0 0 .18-.31V9.35z"/></svg>