<svg xmlns="http://www.w3.org/2000/svg" width="48" height="33" fill="none" viewBox="0 0 48 33"><rect width="48" height="32" fill="#fff" rx="4"/><path fill="#DDD" d="M43.999 1.428a2.604 2.604 0 0 1 2.601 2.6v23.998a2.604 2.604 0 0 1-2.601 2.602H4A2.604 2.604 0 0 1 1.4 28.026V4.03a2.604 2.604 0 0 1 2.601-2.601H44Zm0-1.4H4a4.001 4.001 0 0 0-4.001 4v23.998a4.001 4.001 0 0 0 4.001 4.002H44A4.001 4.001 0 0 0 48 28.026V4.03A4.001 4.001 0 0 0 43.999.028Z"/><path fill="#96154A" d="M3 21.088c.016.458.182.897.472 1.253.29.356.688.61 1.136.722.6.147 3.696.481 5.526.481 1.832 0 4.928-.334 5.528-.481a2.136 2.136 0 0 0 1.136-.722c.29-.356.456-.795.472-1.253v-9.64a2.103 2.103 0 0 0-.472-1.252 2.138 2.138 0 0 0-1.136-.722c-.6-.147-3.695-.48-5.528-.48-1.832 0-4.926.333-5.526.48a2.137 2.137 0 0 0-1.136.722c-.29.356-.455.795-.472 1.252v9.64Z"/><path fill="#fff" d="M11.233 16.02c-1.226-.216-2.043.435-2.043 1.49v2.413l-1.927 1.223V17.51c0-2.11 1.475-3.579 3.97-3.282v1.792ZM10.583 12.374a1.089 1.089 0 0 1-.683 1.012 1.115 1.115 0 0 1-1.205-.237 1.093 1.093 0 0 1-.24-1.195 1.113 1.113 0 0 1 1.804-.355c.207.205.324.484.324.775Z"/><path fill="#F6ABB6" d="M11.694 15.874a.31.31 0 0 0 .235.29c.267.041.537.065.807.07.271-.005.541-.029.809-.07a.316.316 0 0 0 .235-.29v-1.409a.308.308 0 0 0-.235-.287 5.838 5.838 0 0 0-.809-.07c-.27.004-.54.028-.807.07a.312.312 0 0 0-.235.287v1.41Z"/><path fill="#96154A" d="M32.213 12.875c.26.247.391.617.391 1.11v1.94h-.796v-1.838a.948.948 0 0 0-.215-.67.786.786 0 0 0-.602-.224.93.93 0 0 0-.696.263c-.183.21-.275.481-.257.758v1.711h-.795V12.54H30v.437c.134-.157.305-.279.498-.354a1.81 1.81 0 0 1 .678-.123 1.437 1.437 0 0 1 1.036.37M27.087 16a1.798 1.798 0 0 1-1-.284 1.773 1.773 0 0 1-.67-.789 1.754 1.754 0 0 1 .37-1.938 1.801 1.801 0 0 1 1.95-.396c.327.134.608.36.805.652.198.292.303.635.303.986.003.466-.18.913-.51 1.245-.33.332-.779.52-1.248.524Zm.023-2.738a1.003 1.003 0 0 0-.93.601.98.98 0 0 0 .209 1.08 1 1 0 0 0 1.087.22.98.98 0 0 0 .33-1.607 1.001 1.001 0 0 0-.696-.294ZM34.856 21.073V17.69h-.762v.32a1.771 1.771 0 0 0-2.572.458 1.733 1.733 0 0 0 .719 2.49 1.775 1.775 0 0 0 1.853-.187v.303h.762Zm-1.837-.644c-.208 0-.41-.06-.583-.175a1.041 1.041 0 0 1-.447-1.068 1.037 1.037 0 0 1 .825-.817 1.058 1.058 0 0 1 1.078.442 1.033 1.033 0 0 1-.13 1.313 1.057 1.057 0 0 1-.743.305ZM41.322 12.538v.34a1.77 1.77 0 0 0-2.572.457 1.733 1.733 0 0 0 .719 2.489 1.775 1.775 0 0 0 1.853-.186v.286h.762v-3.386h-.762Zm-1.075 2.76a1.057 1.057 0 0 1-.971-.642 1.03 1.03 0 0 1 .227-1.134 1.052 1.052 0 0 1 1.144-.226 1.046 1.046 0 0 1 .649.96c0 .276-.111.54-.308.736a1.057 1.057 0 0 1-.741.305ZM27.363 20.42a1.118 1.118 0 0 1-1.114-.408l.04-.012 2.607-.864a2.053 2.053 0 0 0-.434-.933 1.57 1.57 0 0 0-.72-.493 2.043 2.043 0 0 0-1.797.287c-.242.18-.429.425-.539.706a1.728 1.728 0 0 0-.095.916c.025.165.072.326.141.478.317.726 1.127 1.143 1.967 1.016l.082-.014c.3-.053.58-.183.813-.375.233-.192.413-.441.521-.723l-.642-.247a1.102 1.102 0 0 1-.83.66v.005Zm-1.276-.95a1.052 1.052 0 0 1 .159-.802.966.966 0 0 1 .677-.39c.22-.04.448-.006.648.094a.904.904 0 0 1 .415.445l-1.897.652h-.002Z"/><path fill="#96154A" d="M29.243 19.788c.003.257.079.509.22.725a1.378 1.378 0 0 0 1.331.615c.258-.032.502-.136.703-.299l-.498-.61a.592.592 0 0 1-.374.131.579.579 0 0 1-.408-.162.568.568 0 0 1-.174-.4v-3.356h-.796l-.004 3.356ZM44.495 15.049a.585.585 0 0 1-.373.13.579.579 0 0 1-.535-.344.562.562 0 0 1-.047-.218v-3.255l-.796.506v2.75a1.36 1.36 0 0 0 .797 1.222 1.392 1.392 0 0 0 1.458-.181l-.504-.61ZM24.095 15.92h.835v-4.245a.396.396 0 0 0-.28-.377.406.406 0 0 0-.448.147l-1.246 1.727-1.245-1.727a.4.4 0 0 0-.45-.148.4.4 0 0 0-.278.38v4.243h.836v-2.806l.052.063c.322.399.811 1 .838 1.026.068.063.157.099.25.1a.376.376 0 0 0 .249-.1c.026-.026.515-.627.838-1.026l.051-.063-.002 2.805ZM38.088 12.761h-.795v3.163h.795V12.76ZM38.192 11.784a.49.49 0 0 0-.308-.456.504.504 0 0 0-.543.107.492.492 0 0 0 .352.842.492.492 0 0 0 .498-.494ZM38.193 17.694v1.652c0 .559-.402.987-.937.987-.534 0-.936-.422-.936-.987v-1.649h-.797v1.649a1.712 1.712 0 0 0 .492 1.245 1.743 1.743 0 0 0 1.241.524c.337.001.664-.103.937-.297v.43c0 .863-.699 1.53-1.62 1.53-1.103 0-1.63-.617-1.712-1.188h-.767c.098 1.142 1.113 1.953 2.475 1.953a2.504 2.504 0 0 0 1.702-.64 2.231 2.231 0 0 0 .72-1.656v-3.55l-.798-.003ZM35.838 11.338v1.54a1.77 1.77 0 0 0-2.572.457 1.734 1.734 0 0 0 .718 2.489 1.776 1.776 0 0 0 1.854-.186v.286h.792v-4.586h-.792Zm-1.075 3.96a1.057 1.057 0 0 1-.97-.643 1.033 1.033 0 0 1 .227-1.134 1.054 1.054 0 0 1 1.793.736c0 .276-.111.54-.308.735a1.056 1.056 0 0 1-.742.305ZM24.311 21.073h1.04l-1.172-1.642.027-.016a1.542 1.542 0 0 0 .778-1.195 1.657 1.657 0 0 0-.417-1.255 1.603 1.603 0 0 0-1.194-.533h-1.46a.955.955 0 0 0-.668.284.938.938 0 0 0-.27.669v3.688h.837V19.66h1.494l1.005 1.415Zm-2.47-2.247h-.03v-1.293a.273.273 0 0 1 .268-.271h1.266a.795.795 0 0 1 .561.205.78.78 0 0 1-.478 1.36H21.84Z"/></svg>